<?xml version="1.0" standalone="no"?>
<!DOCTYPE svg PUBLIC "-//W3C//DTD SVG 20010904//EN"
 "http://www.w3.org/TR/2001/REC-SVG-20010904/DTD/svg10.dtd">
<svg version="1.0" xmlns="http://www.w3.org/2000/svg"
 width="500.000000pt" height="500.000000pt" viewBox="0 0 500.000000 500.000000"
 preserveAspectRatio="xMidYMid meet">
<metadata>
Created by potrace 1.11, written by Peter Selinger 2001-2013
</metadata>
<g transform="translate(0.000000,500.000000) scale(0.100000,-0.100000)"
fill="#000000" stroke="none">
<path d="M520 2540 l0 -2101 558 2 c434 1 577 4 646 15 337 55 569 248 669
559 65 200 62 123 62 1505 0 690 -4 1282 -8 1315 -39 280 -157 504 -337 637
-81 60 -209 116 -311 137 -30 6 -65 14 -79 18 -14 4 -289 8 -612 10 l-588 4 0
-2101z m1115 1659 c202 -48 326 -202 352 -436 10 -88 10 -2381 0 -2453 -32
-236 -153 -384 -352 -430 -41 -10 -391 -16 -610 -11 l-40 1 1 1659 c1 913 4
1665 6 1673 7 17 567 15 643 -3z"/>
<path d="M2660 2540 l0 -2101 558 2 c587 1 635 5 787 50 322 97 515 341 566
719 12 93 16 633 5 745 -18 176 -87 373 -163 465 -91 111 -175 173 -303 225
-76 31 -81 34 -56 41 132 33 286 160 355 293 55 107 71 164 97 351 13 95 6
532 -10 630 -64 396 -252 588 -651 667 -16 3 -290 7 -607 10 l-578 4 0 -2101z
m1075 1659 c165 -38 265 -153 298 -344 19 -108 20 -502 3 -611 -32 -194 -121
-304 -284 -354 -89 -28 -145 -32 -399 -34 l-223 -2 -1 61 c-4 488 2 1289 9
1294 18 11 545 2 597 -10z m-24 -1784 c223 -39 336 -149 387 -377 17 -75 20
-128 20 -390 1 -419 -15 -506 -117 -636 -54 -69 -151 -120 -261 -137 -51 -8
-599 -9 -607 -2 -3 4 -6 1103 -3 1505 l0 53 253 -2 c155 -1 282 -6 328 -14z"/>
</g>
</svg>
