<?xml version="1.0" encoding="utf-8"?>
<!-- Generator: Adobe Illustrator 19.2.0, SVG Export Plug-In . SVG Version: 6.00 Build 0)  -->
<svg version="1.1" id="Laag_1" xmlns="http://www.w3.org/2000/svg" xmlns:xlink="http://www.w3.org/1999/xlink" x="0px" y="0px"
	 viewBox="0 0 148.5 39.9" style="enable-background:new 0 0 148.5 39.9;" xml:space="preserve">
<style type="text/css">
	.st0{fill:#3E3E3E;}
</style>
<g>
	<path class="st0" d="M21.1,16.4l2.5,2.1V0.3h2V38h-2v-4.8l-2.5,2.1C19,37,16.4,38,13.7,38C7.3,38,2,32.5,2,25.8s5.3-12.1,11.8-12.1
		C16.4,13.7,19,14.7,21.1,16.4z M23.5,27.1v-2.6c-0.7-5.1-4.8-8.5-9.8-8.5C8.2,16,4,20.2,4,25.8c0,5.6,4.2,10,9.7,10
		C18.7,35.8,22.8,32.2,23.5,27.1z"/>
	<path class="st0" d="M53.6,25.3c0,7-5.6,12.7-12.3,12.7C34.5,38,29,32.3,29,25.3s5.6-12.7,12.4-12.7C48.1,12.6,53.6,18.3,53.6,25.3
		z M51.8,25.3c0-5.9-4.7-10.7-10.5-10.7c-5.8,0-10.5,4.8-10.5,10.7S35.5,36,41.3,36C47.1,36,51.8,31.2,51.8,25.3z"/>
	<path class="st0" d="M68.8,15.3h-6.2V38h-2V15.3h-6.3v-2.1h6.3V2.8h2l0,10.5h6.2V15.3z"/>
	<path class="st0" d="M97.7,28.2c0,5.4-4.3,9.7-9.7,9.8c0,0,0,0,0,0H73.9V3l11.9,0c5.5,0,9.9,4.6,9.9,10.1c0,2.7-1,5.1-2.7,6.8
		C95.9,21.6,97.7,24.7,97.7,28.2z M78.7,7.6v10.8h7c2.9,0,5.4-2.5,5.4-5.4c0-3-2.4-5.4-5.4-5.4H78.7z M93.2,28.2
		c0-2.9-2.4-5.1-5.2-5.1h-9.3v10.2h9.4v0.2v-0.2C91,33.3,93.2,31.1,93.2,28.2z"/>
	<path class="st0" d="M103,3.3c1.2,0,2.4,1.1,2.4,2.4c0,1.3-1.1,2.4-2.4,2.4c-1.3,0-2.4-1.1-2.4-2.4C100.6,4.4,101.7,3.3,103,3.3z
		 M105.3,38h-4.5V13h4.5V38z"/>
	<path class="st0" d="M126.4,12.9v4.8h-6.6V38h-4.7V17.7h-6.8v-4.8h6.8V0.5h4.7v12.5H126.4z"/>
	<path class="st0" d="M146.3,30.3c0,4.2-3.4,7.6-7.8,7.6h-1c-3.1,0-6.1-1.5-7.6-3.7l-0.2-0.3l2.1-3.6l0.6,0.9
		c1.1,1.8,3.5,2.5,6.1,2.6h0.1c2.1,0,3.6-1.5,3.6-3.5c0-1.8-1.1-2.8-3.7-3.2c-3.9-0.1-8.6-2.4-8.6-7c0-4,3.2-7.3,7.1-7.3h0.5
		c2.6,0,5.3,1.2,6.7,3l0.3,0.4l-2.2,4l-0.6-0.7c-1.2-1.4-2.6-2.1-4.1-2.2c-1.6,0-3.2,0.9-3.2,2.9c0,1,0.5,2.5,4.5,2.6
		C143.3,23.3,146.3,26.3,146.3,30.3z"/>
</g>
</svg>
