<?xml version="1.0" encoding="utf-8"?>
<!-- Generator: Adobe Illustrator 21.0.0, SVG Export Plug-In . SVG Version: 6.00 Build 0)  -->
<svg version="1.1" id="Laag_1" xmlns="http://www.w3.org/2000/svg" xmlns:xlink="http://www.w3.org/1999/xlink" x="0px" y="0px"
	 viewBox="0 0 300.8 111.1" style="enable-background:new 0 0 300.8 111.1;" xml:space="preserve">
<g>
	<path style="fill:#FFFFFF;" d="M51.4,63.9c0,3.2-0.5,6.1-1.6,8.9c-1.1,2.7-2.6,5-4.5,7c-2,2-4.3,3.6-7,4.7c-2.7,1.1-5.7,1.6-9,1.6
		c-3.3,0-6.2-0.6-8.7-1.9s-4.2-2.5-5.1-4c0,0.3,0,0.5,0.1,0.8c0,0.2,0,0.5,0,0.9V85H5.9V6.9h9.6v41c0.5-0.7,1.2-1.4,2-2.1
		c0.8-0.8,1.9-1.5,3.1-2.1c1.2-0.6,2.5-1.2,4-1.6c1.5-0.4,3.1-0.6,5-0.6c3.3,0,6.2,0.5,8.9,1.6c2.7,1,5,2.5,6.9,4.5
		c1.9,2,3.4,4.3,4.4,7.1C50.9,57.3,51.4,60.4,51.4,63.9z M41,63.7c0-3.7-1.1-6.8-3.2-9.2c-2.2-2.4-5.2-3.7-9-3.7
		c-1.9,0-3.7,0.3-5.3,1c-1.6,0.6-3,1.5-4.1,2.7c-1.2,1.2-2.1,2.5-2.8,4.1c-0.7,1.6-1,3.2-1,5.1c0,1.9,0.3,3.6,1,5.2
		c0.7,1.6,1.6,3,2.8,4.2c1.2,1.2,2.5,2.1,4.1,2.8c1.6,0.7,3.4,1,5.3,1c1.9,0,3.7-0.3,5.2-1c1.5-0.7,2.8-1.6,3.9-2.8
		c1-1.2,1.8-2.6,2.4-4.1C40.7,67.2,41,65.5,41,63.7z"/>
	<path style="fill:#FFFFFF;" d="M57.1,26c0-1.7,0.6-3.2,1.9-4.3c1.3-1.1,2.6-1.7,4.1-1.7c1.5,0,2.8,0.6,4.1,1.7
		c1.2,1.1,1.9,2.6,1.9,4.3c0,1.8-0.6,3.2-1.9,4.4c-1.2,1.1-2.6,1.6-4.1,1.6c-1.5,0-2.8-0.5-4.1-1.6C57.7,29.2,57.1,27.8,57.1,26z
		 M67.8,85h-9.6V42.5h9.6V85z"/>
	<path style="fill:#FFFFFF;" d="M81,23.9h9.5v18.6h11.1v8.6H90.5V85H81V51.1h-7.2v-8.6H81V23.9z"/>
	<path style="fill:#FFFFFF;" d="M161.1,80.5c-2.3,1.5-5.1,2.7-8.4,3.8c-3.3,1-7,1.5-11.1,1.5c-5.4,0-10.3-0.9-14.7-2.8
		c-4.4-1.9-8.1-4.5-11.2-7.8c-3.1-3.3-5.5-7.1-7.2-11.4c-1.7-4.3-2.5-8.9-2.5-13.7c0-5.2,1-10,2.9-14.5c1.9-4.4,4.5-8.3,7.8-11.6
		c3.3-3.3,7.1-5.9,11.5-7.8c4.4-1.9,9.1-2.8,14.1-2.8c3.6,0,7,0.5,10.3,1.4c3.3,0.9,6.1,2.1,8.4,3.6c-0.4,0.6-0.7,1.1-0.9,1.5
		c-0.2,0.4-0.6,1-1.1,1.8c-2.3-1.5-4.9-2.6-7.9-3.3c-2.9-0.7-5.8-1.1-8.6-1.1c-4.5,0-8.7,0.9-12.6,2.6c-3.9,1.7-7.3,4-10.2,7
		c-2.9,3-5.2,6.4-6.9,10.3c-1.7,3.9-2.5,8.1-2.5,12.6c0,4.2,0.8,8.2,2.2,12.1c1.5,3.8,3.6,7.2,6.4,10.1c2.8,2.9,6.1,5.2,10,7
		c3.9,1.7,8.2,2.6,13,2.6c3.7,0,7-0.5,10.1-1.5c3.1-1,5.6-2.1,7.6-3.4L161.1,80.5z"/>
	<path style="fill:#FFFFFF;" d="M173.3,11.1c2.5,3.7,5.2,7.8,8.2,12c3,4.3,6,8.6,9,12.9c3,4.3,5.9,8.5,8.8,12.5
		c2.8,4,5.4,7.7,7.7,10.9c0.8-1.1,1.9-2.8,3.4-4.9c1.5-2.1,3.1-4.6,5-7.4c1.9-2.8,4-5.7,6.1-8.9c2.2-3.2,4.4-6.4,6.7-9.5
		c2.2-3.2,4.4-6.3,6.5-9.4c2.1-3,4.1-5.8,5.9-8.2V85h-4.3V27.3c0-0.7,0-1.3,0-2c0-0.7,0.1-1.4,0.1-2c-2.3,3.2-4.8,6.7-7.5,10.6
		c-2.6,3.8-5.3,7.7-7.9,11.6c-2.6,3.9-5.2,7.7-7.6,11.3c-2.4,3.7-4.6,6.9-6.5,9.8c-1.2-1.6-2.7-3.6-4.5-6.1c-1.8-2.5-3.6-5.1-5.6-8
		c-2-2.9-4-5.8-6-8.9c-2.1-3-4-5.9-5.8-8.5c-1.8-2.7-3.4-5.1-4.8-7.1c-1.4-2.1-2.4-3.7-3-4.7c0,0.6,0,1.2,0.1,2
		c0.1,0.7,0.1,1.4,0.1,2V85h-4.1V11.1z"/>
	<path style="fill:#FFFFFF;" d="M294.9,17.8l-1.5,3.3c-2.1-0.9-4.6-1.6-7.5-2.4s-5.8-1-8.5-1c-2.5,0-4.8,0.3-6.9,1
		c-2.1,0.7-3.8,1.6-5.2,2.8c-1.4,1.2-2.5,2.5-3.3,4.1c-0.8,1.6-1.1,3.2-1.1,5.1c0,2.1,0.5,3.9,1.6,5.4c1.1,1.5,2.5,2.7,4.2,3.8
		c1.8,1.1,3.8,2,6,2.9c2.2,0.8,4.5,1.7,6.9,2.5c2.4,0.9,4.7,1.9,6.9,3c2.2,1.1,4.2,2.4,6,4c1.8,1.6,3.2,3.4,4.2,5.6
		c1.1,2.2,1.6,4.8,1.6,7.9c0,3.1-0.6,5.8-1.6,8.3c-1.1,2.5-2.7,4.6-4.8,6.3c-2.1,1.7-4.5,3.1-7.4,4c-2.9,0.9-6.1,1.4-9.6,1.4
		c-2.8,0-5.4-0.3-7.7-0.8c-2.3-0.5-4.3-1.2-6.1-2c-1.8-0.8-3.4-1.5-4.6-2.3c-1.3-0.8-2.3-1.4-3-1.8l2-3.7c1.1,0.7,2.3,1.5,3.8,2.2
		c1.5,0.8,3.1,1.5,4.8,2.1c1.7,0.6,3.5,1.1,5.4,1.6c1.9,0.4,3.7,0.6,5.6,0.6c2.1,0,4.3-0.3,6.6-0.9c2.3-0.6,4.3-1.6,6.2-2.9
		c1.9-1.3,3.4-3,4.6-5c1.2-2,1.8-4.5,1.8-7.2c0-2.7-0.5-4.9-1.6-6.8c-1.1-1.9-2.5-3.4-4.2-4.8c-1.8-1.3-3.8-2.4-6-3.4
		c-2.2-1-4.5-1.9-6.9-2.8c-2.4-0.9-4.7-1.8-6.9-2.7c-2.2-0.9-4.2-2-6-3.3c-1.8-1.3-3.2-2.8-4.2-4.5c-1.1-1.7-1.6-3.9-1.6-6.4
		c0-2.3,0.5-4.6,1.5-6.6c1-2.1,2.3-3.9,4.1-5.5c1.8-1.6,3.9-2.8,6.4-3.7c2.5-0.9,5.2-1.4,8.2-1.4c1.5,0,3.1,0.1,4.9,0.4
		c1.7,0.2,3.4,0.5,5,0.9c1.7,0.4,3.2,0.8,4.6,1.2C292.8,16.9,294,17.3,294.9,17.8z"/>
</g>
</svg>
